# MagicaVoxel @ Ephtracy

# group
o 

# material
mtllib gray.mtl
usemtl palette

# normals
vn -1 0 0
vn 1 0 0
vn 0 0 1
vn 0 0 -1
vn 0 -1 0
vn 0 1 0

# texcoords
vt 0.0175781 0.5
vt 0.0566406 0.5
vt 0.0917969 0.5
vt 0.951172 0.5
vt 0.958984 0.5
vt 0.970703 0.5

# verts
v -0.3 0.2 0
v -0.3 0.2 -0.2
v -0.3 0.3 0.2
v -0.3 0.3 0
v -0.3 0.3 -0.2
v -0.3 0.3 -0.3
v -0.3 0.4 0.3
v -0.3 0.4 0.2
v -0.3 0.4 0
v -0.3 0.4 -0.3
v -0.3 0.5 0.4
v -0.3 0.5 0.3
v -0.3 0.5 0.2
v -0.3 0.5 0
v -0.3 0.6 0.4
v -0.3 0.6 0.2
v -0.2 0 0.3
v -0.2 0 0
v -0.2 0.1 0.3
v -0.2 0.1 0.2
v -0.2 0.1 0
v -0.2 0.1 -0.1
v -0.2 0.2 0.4
v -0.2 0.2 0.2
v -0.2 0.2 0
v -0.2 0.2 -0.1
v -0.2 0.2 -0.2
v -0.2 0.2 -0.3
v -0.2 0.3 0.5
v -0.2 0.3 0.4
v -0.2 0.3 0.2
v -0.2 0.3 0
v -0.2 0.3 -0.2
v -0.2 0.3 -0.3
v -0.2 0.3 -0.4
v -0.2 0.4 0.3
v -0.2 0.4 0.2
v -0.2 0.4 0
v -0.2 0.4 -0.3
v -0.2 0.5 0.6
v -0.2 0.5 0.5
v -0.2 0.5 0.4
v -0.2 0.5 0.3
v -0.2 0.5 0.2
v -0.2 0.5 0
v -0.2 0.5 -0.2
v -0.2 0.5 -0.4
v -0.2 0.6 0.6
v -0.2 0.6 0.5
v -0.2 0.6 0.4
v -0.2 0.6 0.2
v -0.2 0.7 0.7
v -0.2 0.7 0.6
v -0.2 0.7 0.5
v -0.2 0.7 0.3
v -0.2 0.7 -0.1
v -0.2 0.7 -0.2
v -0.2 0.8 0.5
v -0.2 0.8 0.3
v -0.2 0.8 0
v -0.2 0.8 -0.1
v -0.2 0.9 0.1
v -0.2 0.9 0
v -0.2 1 0.6
v -0.2 1 0.5
v -0.2 1 0.3
v -0.2 1 0.2
v -0.2 1 0.1
v -0.2 1.1 0.6
v -0.2 1.1 0.5
v -0.2 1.1 0.3
v -0.2 1.1 0.2
v -0.2 1.2 0.7
v -0.2 1.2 0.3
v -0.1 0.2 -0.3
v -0.1 0.2 -0.4
v -0.1 0.3 -0.3
v -0.1 0.3 -0.4
v -0.1 0.5 -0.2
v -0.1 0.5 -0.4
v -0.1 0.5 -0.8
v -0.1 0.6 -0.2
v -0.1 0.6 -0.8
v -0.1 0.9 0.8
v -0.1 0.9 0.7
v -0.1 1 0.8
v -0.1 1 0.7
v -0.1 1.1 0.8
v -0.1 1.1 0.7
v -0.1 1.2 0.7
v -0.1 1.2 0.4
v -0.1 1.3 0.7
v -0.1 1.3 0.6
v -0.1 1.4 0.6
v -0.1 1.4 0.5
v -0.1 1.4 0.4
v -0.1 1.4 0.3
v -0.1 1.5 0.5
v -0.1 1.5 0.4
v -0.1 1.5 0.3
v -0.1 1.5 0.2
v -0.1 1.6 0.4
v -0.1 1.6 0.2
v 0.1 0 0.3
v 0.1 0 0
v 0.1 0.1 0.3
v 0.1 0.1 0.2
v 0.1 0.1 0
v 0.1 0.1 -0.1
v 0.1 0.2 0.2
v 0.1 0.2 -0.1
v -0.1 0 0.3
v -0.1 0 0
v -0.1 0.1 0.3
v -0.1 0.1 0.2
v -0.1 0.1 0
v -0.1 0.1 -0.1
v -0.1 0.2 0.2
v -0.1 0.2 -0.1
v 0.1 0.2 -0.3
v 0.1 0.2 -0.4
v 0.1 0.3 -0.3
v 0.1 0.3 -0.4
v 0.1 0.5 -0.2
v 0.1 0.5 -0.4
v 0.1 0.5 -0.8
v 0.1 0.6 -0.2
v 0.1 0.6 -0.8
v 0.1 0.9 0.8
v 0.1 0.9 0.7
v 0.1 1 0.8
v 0.1 1 0.7
v 0.1 1.1 0.8
v 0.1 1.1 0.7
v 0.1 1.2 0.7
v 0.1 1.2 0.4
v 0.1 1.3 0.7
v 0.1 1.3 0.6
v 0.1 1.4 0.6
v 0.1 1.4 0.5
v 0.1 1.4 0.4
v 0.1 1.4 0.3
v 0.1 1.5 0.5
v 0.1 1.5 0.4
v 0.1 1.5 0.3
v 0.1 1.5 0.2
v 0.1 1.6 0.4
v 0.1 1.6 0.2
v 0.2 0 0.3
v 0.2 0 0
v 0.2 0.1 0.3
v 0.2 0.1 0.2
v 0.2 0.1 0
v 0.2 0.1 -0.1
v 0.2 0.2 0.4
v 0.2 0.2 0.2
v 0.2 0.2 0
v 0.2 0.2 -0.1
v 0.2 0.2 -0.2
v 0.2 0.2 -0.3
v 0.2 0.3 0.5
v 0.2 0.3 0.4
v 0.2 0.3 0.2
v 0.2 0.3 0
v 0.2 0.3 -0.2
v 0.2 0.3 -0.3
v 0.2 0.3 -0.4
v 0.2 0.4 0.3
v 0.2 0.4 0.2
v 0.2 0.4 0
v 0.2 0.4 -0.3
v 0.2 0.5 0.6
v 0.2 0.5 0.5
v 0.2 0.5 0.4
v 0.2 0.5 0.3
v 0.2 0.5 0.2
v 0.2 0.5 0
v 0.2 0.5 -0.2
v 0.2 0.5 -0.4
v 0.2 0.6 0.6
v 0.2 0.6 0.5
v 0.2 0.6 0.4
v 0.2 0.6 0.2
v 0.2 0.7 0.7
v 0.2 0.7 0.6
v 0.2 0.7 0.5
v 0.2 0.7 0.3
v 0.2 0.7 -0.1
v 0.2 0.7 -0.2
v 0.2 0.8 0.5
v 0.2 0.8 0.3
v 0.2 0.8 0
v 0.2 0.8 -0.1
v 0.2 0.9 0.1
v 0.2 0.9 0
v 0.2 1 0.6
v 0.2 1 0.5
v 0.2 1 0.3
v 0.2 1 0.2
v 0.2 1 0.1
v 0.2 1.1 0.6
v 0.2 1.1 0.5
v 0.2 1.1 0.3
v 0.2 1.1 0.2
v 0.2 1.2 0.7
v 0.2 1.2 0.3
v 0.3 0.2 0
v 0.3 0.2 -0.2
v 0.3 0.3 0.2
v 0.3 0.3 0
v 0.3 0.3 -0.2
v 0.3 0.3 -0.3
v 0.3 0.4 0.3
v 0.3 0.4 0.2
v 0.3 0.4 0
v 0.3 0.4 -0.3
v 0.3 0.5 0.4
v 0.3 0.5 0.3
v 0.3 0.5 0.2
v 0.3 0.5 0
v 0.3 0.6 0.4
v 0.3 0.6 0.2
v -0.1 0.9 0.8
v -0.1 1 0.8
v -0.1 1.1 0.8
v 0.1 0.9 0.8
v 0.1 1 0.8
v 0.1 1.1 0.8
v -0.2 0.7 0.7
v -0.2 1.2 0.7
v -0.1 0.9 0.7
v -0.1 1 0.7
v -0.1 1.1 0.7
v -0.1 1.2 0.7
v -0.1 1.3 0.7
v 0.1 0.9 0.7
v 0.1 1 0.7
v 0.1 1.1 0.7
v 0.1 1.2 0.7
v 0.1 1.3 0.7
v 0.2 0.7 0.7
v 0.2 1.2 0.7
v -0.2 0.5 0.6
v -0.2 0.6 0.6
v -0.2 0.7 0.6
v -0.1 1.3 0.6
v -0.1 1.4 0.6
v 0.1 1.3 0.6
v 0.1 1.4 0.6
v 0.2 0.5 0.6
v 0.2 0.6 0.6
v 0.2 0.7 0.6
v -0.2 0.3 0.5
v -0.2 0.5 0.5
v -0.1 1.4 0.5
v -0.1 1.5 0.5
v 0.1 1.4 0.5
v 0.1 1.5 0.5
v 0.2 0.3 0.5
v 0.2 0.5 0.5
v -0.3 0.5 0.4
v -0.3 0.6 0.4
v -0.2 0.2 0.4
v -0.2 0.3 0.4
v -0.2 0.5 0.4
v -0.2 0.6 0.4
v -0.1 1.5 0.4
v -0.1 1.6 0.4
v 0.1 1.5 0.4
v 0.1 1.6 0.4
v 0.2 0.2 0.4
v 0.2 0.3 0.4
v 0.2 0.5 0.4
v 0.2 0.6 0.4
v 0.3 0.5 0.4
v 0.3 0.6 0.4
v -0.3 0.4 0.3
v -0.3 0.5 0.3
v -0.2 0 0.3
v -0.2 0.1 0.3
v -0.2 0.4 0.3
v -0.2 0.5 0.3
v -0.1 0 0.3
v -0.1 0.1 0.3
v 0.1 0 0.3
v 0.1 0.1 0.3
v 0.2 0 0.3
v 0.2 0.1 0.3
v 0.2 0.4 0.3
v 0.2 0.5 0.3
v 0.3 0.4 0.3
v 0.3 0.5 0.3
v -0.3 0.3 0.2
v -0.3 0.4 0.2
v -0.2 0.1 0.2
v -0.2 0.2 0.2
v -0.2 0.3 0.2
v -0.2 0.4 0.2
v -0.1 0.1 0.2
v -0.1 0.2 0.2
v 0.1 0.1 0.2
v 0.1 0.2 0.2
v 0.2 0.1 0.2
v 0.2 0.2 0.2
v 0.2 0.3 0.2
v 0.2 0.4 0.2
v 0.3 0.3 0.2
v 0.3 0.4 0.2
v -0.3 0.2 0
v -0.3 0.3 0
v -0.2 0.2 0
v -0.2 0.3 0
v 0.2 0.2 0
v 0.2 0.3 0
v 0.3 0.2 0
v 0.3 0.3 0
v -0.1 1.2 0.4
v -0.1 1.4 0.4
v 0.1 1.2 0.4
v 0.1 1.4 0.4
v -0.2 1.1 0.3
v -0.2 1.2 0.3
v -0.1 1.4 0.3
v -0.1 1.5 0.3
v 0.1 1.4 0.3
v 0.1 1.5 0.3
v 0.2 1.1 0.3
v 0.2 1.2 0.3
v -0.3 0.5 0.2
v -0.3 0.6 0.2
v -0.2 0.5 0.2
v -0.2 0.6 0.2
v -0.2 1 0.2
v -0.2 1.1 0.2
v -0.1 1.5 0.2
v -0.1 1.6 0.2
v 0.1 1.5 0.2
v 0.1 1.6 0.2
v 0.2 0.5 0.2
v 0.2 0.6 0.2
v 0.2 1 0.2
v 0.2 1.1 0.2
v 0.3 0.5 0.2
v 0.3 0.6 0.2
v -0.2 0.9 0.1
v -0.2 1 0.1
v 0.2 0.9 0.1
v 0.2 1 0.1
v -0.3 0.4 0
v -0.3 0.5 0
v -0.2 0 0
v -0.2 0.1 0
v -0.2 0.4 0
v -0.2 0.5 0
v -0.2 0.8 0
v -0.2 0.9 0
v -0.1 0 0
v -0.1 0.1 0
v -0.1 0.8 0
v 0.1 0 0
v 0.1 0.1 0
v 0.1 0.8 0
v 0.2 0 0
v 0.2 0.1 0
v 0.2 0.4 0
v 0.2 0.5 0
v 0.2 0.8 0
v 0.2 0.9 0
v 0.3 0.4 0
v 0.3 0.5 0
v -0.2 0.1 -0.1
v -0.2 0.2 -0.1
v -0.2 0.7 -0.1
v -0.2 0.8 -0.1
v -0.1 0.1 -0.1
v -0.1 0.2 -0.1
v -0.1 0.7 -0.1
v -0.1 0.8 -0.1
v 0.1 0.1 -0.1
v 0.1 0.2 -0.1
v 0.1 0.7 -0.1
v 0.1 0.8 -0.1
v 0.2 0.1 -0.1
v 0.2 0.2 -0.1
v 0.2 0.7 -0.1
v 0.2 0.8 -0.1
v -0.3 0.2 -0.2
v -0.3 0.3 -0.2
v -0.2 0.2 -0.2
v -0.2 0.3 -0.2
v -0.2 0.5 -0.2
v -0.2 0.7 -0.2
v -0.1 0.5 -0.2
v -0.1 0.6 -0.2
v 0.1 0.5 -0.2
v 0.1 0.6 -0.2
v 0.2 0.2 -0.2
v 0.2 0.3 -0.2
v 0.2 0.5 -0.2
v 0.2 0.7 -0.2
v 0.3 0.2 -0.2
v 0.3 0.3 -0.2
v -0.3 0.3 -0.3
v -0.3 0.4 -0.3
v -0.2 0.2 -0.3
v -0.2 0.3 -0.3
v -0.2 0.4 -0.3
v -0.1 0.2 -0.3
v -0.1 0.3 -0.3
v 0.1 0.2 -0.3
v 0.1 0.3 -0.3
v 0.2 0.2 -0.3
v 0.2 0.3 -0.3
v 0.2 0.4 -0.3
v 0.3 0.3 -0.3
v 0.3 0.4 -0.3
v -0.2 0.3 -0.4
v -0.2 0.5 -0.4
v -0.1 0.2 -0.4
v -0.1 0.3 -0.4
v -0.1 0.5 -0.4
v 0.1 0.2 -0.4
v 0.1 0.3 -0.4
v 0.1 0.5 -0.4
v 0.2 0.3 -0.4
v 0.2 0.5 -0.4
v -0.1 0.5 -0.8
v -0.1 0.6 -0.8
v 0.1 0.5 -0.8
v 0.1 0.6 -0.8
v -0.2 0 0.3
v -0.1 0 0.3
v 0.1 0 0.3
v 0.2 0 0.3
v -0.2 0 0
v -0.1 0 0
v 0.1 0 0
v 0.2 0 0
v -0.2 0.1 0
v -0.1 0.1 0
v 0.1 0.1 0
v 0.2 0.1 0
v -0.2 0.1 -0.1
v -0.1 0.1 -0.1
v 0.1 0.1 -0.1
v 0.2 0.1 -0.1
v -0.2 0.2 0.4
v 0.2 0.2 0.4
v -0.2 0.2 0.2
v -0.1 0.2 0.2
v 0.1 0.2 0.2
v 0.2 0.2 0.2
v -0.3 0.2 0
v -0.2 0.2 0
v 0.2 0.2 0
v 0.3 0.2 0
v -0.2 0.2 -0.1
v -0.1 0.2 -0.1
v 0.1 0.2 -0.1
v 0.2 0.2 -0.1
v -0.3 0.2 -0.2
v -0.2 0.2 -0.2
v 0.2 0.2 -0.2
v 0.3 0.2 -0.2
v -0.2 0.2 -0.3
v -0.1 0.2 -0.3
v 0.1 0.2 -0.3
v 0.2 0.2 -0.3
v -0.1 0.2 -0.4
v 0.1 0.2 -0.4
v -0.2 0.3 0.5
v 0.2 0.3 0.5
v -0.2 0.3 0.4
v 0.2 0.3 0.4
v -0.3 0.3 0.2
v -0.2 0.3 0.2
v 0.2 0.3 0.2
v 0.3 0.3 0.2
v -0.3 0.3 0
v -0.2 0.3 0
v 0.2 0.3 0
v 0.3 0.3 0
v -0.3 0.3 -0.2
v -0.2 0.3 -0.2
v 0.2 0.3 -0.2
v 0.3 0.3 -0.2
v -0.3 0.3 -0.3
v -0.2 0.3 -0.3
v -0.1 0.3 -0.3
v 0.1 0.3 -0.3
v 0.2 0.3 -0.3
v 0.3 0.3 -0.3
v -0.2 0.3 -0.4
v -0.1 0.3 -0.4
v 0.1 0.3 -0.4
v 0.2 0.3 -0.4
v -0.3 0.4 0.3
v -0.2 0.4 0.3
v 0.2 0.4 0.3
v 0.3 0.4 0.3
v -0.3 0.4 0.2
v -0.2 0.4 0.2
v 0.2 0.4 0.2
v 0.3 0.4 0.2
v -0.2 0.5 0.6
v 0.2 0.5 0.6
v -0.2 0.5 0.5
v 0.2 0.5 0.5
v -0.3 0.5 0.4
v -0.2 0.5 0.4
v 0.2 0.5 0.4
v 0.3 0.5 0.4
v -0.3 0.5 0.3
v -0.2 0.5 0.3
v 0.2 0.5 0.3
v 0.3 0.5 0.3
v -0.1 0.5 -0.4
v 0.1 0.5 -0.4
v -0.1 0.5 -0.8
v 0.1 0.5 -0.8
v -0.2 0.7 0.7
v 0.2 0.7 0.7
v -0.2 0.7 0.6
v 0.2 0.7 0.6
v -0.1 0.9 0.8
v 0.1 0.9 0.8
v -0.1 0.9 0.7
v 0.1 0.9 0.7
v -0.1 1.4 0.4
v 0.1 1.4 0.4
v -0.1 1.4 0.3
v 0.1 1.4 0.3
v -0.1 1.5 0.3
v 0.1 1.5 0.3
v -0.1 1.5 0.2
v 0.1 1.5 0.2
v -0.2 0.1 0.3
v -0.1 0.1 0.3
v 0.1 0.1 0.3
v 0.2 0.1 0.3
v -0.2 0.1 0.2
v -0.1 0.1 0.2
v 0.1 0.1 0.2
v 0.2 0.1 0.2
v -0.3 0.4 0
v -0.2 0.4 0
v 0.2 0.4 0
v 0.3 0.4 0
v -0.3 0.4 -0.3
v -0.2 0.4 -0.3
v 0.2 0.4 -0.3
v 0.3 0.4 -0.3
v -0.3 0.5 0.2
v -0.2 0.5 0.2
v 0.2 0.5 0.2
v 0.3 0.5 0.2
v -0.3 0.5 0
v -0.2 0.5 0
v 0.2 0.5 0
v 0.3 0.5 0
v -0.2 0.5 -0.2
v -0.1 0.5 -0.2
v 0.1 0.5 -0.2
v 0.2 0.5 -0.2
v -0.2 0.5 -0.4
v -0.1 0.5 -0.4
v 0.1 0.5 -0.4
v 0.2 0.5 -0.4
v -0.3 0.6 0.4
v -0.2 0.6 0.4
v 0.2 0.6 0.4
v 0.3 0.6 0.4
v -0.3 0.6 0.2
v -0.2 0.6 0.2
v 0.2 0.6 0.2
v 0.3 0.6 0.2
v -0.1 0.6 -0.2
v 0.1 0.6 -0.2
v -0.1 0.6 -0.8
v 0.1 0.6 -0.8
v -0.2 0.7 -0.1
v -0.1 0.7 -0.1
v 0.1 0.7 -0.1
v 0.2 0.7 -0.1
v -0.2 0.7 -0.2
v 0.2 0.7 -0.2
v -0.2 0.8 0
v -0.1 0.8 0
v 0.1 0.8 0
v 0.2 0.8 0
v -0.2 0.8 -0.1
v -0.1 0.8 -0.1
v 0.1 0.8 -0.1
v 0.2 0.8 -0.1
v -0.2 0.9 0.1
v 0.2 0.9 0.1
v -0.2 0.9 0
v 0.2 0.9 0
v -0.2 1 0.2
v 0.2 1 0.2
v -0.2 1 0.1
v 0.2 1 0.1
v -0.1 1.1 0.8
v 0.1 1.1 0.8
v -0.1 1.1 0.7
v 0.1 1.1 0.7
v -0.2 1.1 0.3
v 0.2 1.1 0.3
v -0.2 1.1 0.2
v 0.2 1.1 0.2
v -0.2 1.2 0.7
v -0.1 1.2 0.7
v 0.1 1.2 0.7
v 0.2 1.2 0.7
v -0.1 1.2 0.4
v 0.1 1.2 0.4
v -0.2 1.2 0.3
v 0.2 1.2 0.3
v -0.1 1.3 0.7
v 0.1 1.3 0.7
v -0.1 1.3 0.6
v 0.1 1.3 0.6
v -0.1 1.4 0.6
v 0.1 1.4 0.6
v -0.1 1.4 0.5
v 0.1 1.4 0.5
v -0.1 1.5 0.5
v 0.1 1.5 0.5
v -0.1 1.5 0.4
v 0.1 1.5 0.4
v -0.1 1.6 0.4
v 0.1 1.6 0.4
v -0.1 1.6 0.2
v 0.1 1.6 0.2

# faces
f 4/6/1 2/6/1 1/6/1
f 5/6/1 2/6/1 4/6/1
f 8/5/1 4/5/1 3/5/1
f 8/5/1 6/5/1 5/5/1
f 8/5/1 5/5/1 4/5/1
f 9/5/1 6/5/1 8/5/1
f 10/5/1 6/5/1 9/5/1
f 12/5/1 8/5/1 7/5/1
f 12/5/1 9/5/1 8/5/1
f 13/5/1 9/5/1 12/5/1
f 14/5/1 9/5/1 13/5/1
f 15/5/1 12/5/1 11/5/1
f 15/5/1 13/5/1 12/5/1
f 16/5/1 13/5/1 15/5/1
f 19/2/1 18/2/1 17/2/1
f 20/2/1 18/2/1 19/2/1
f 21/2/1 18/2/1 20/2/1
f 24/6/1 22/6/1 21/6/1
f 24/6/1 21/6/1 20/6/1
f 25/6/1 22/6/1 24/6/1
f 26/6/1 22/6/1 25/6/1
f 30/6/1 24/6/1 23/6/1
f 30/6/1 25/6/1 24/6/1
f 31/6/1 25/6/1 30/6/1
f 32/6/1 25/6/1 31/6/1
f 33/6/1 28/6/1 27/6/1
f 34/6/1 28/6/1 33/6/1
f 36/6/1 30/6/1 29/6/1
f 36/6/1 31/6/1 30/6/1
f 37/6/1 31/6/1 36/6/1
f 39/6/1 35/6/1 34/6/1
f 41/6/1 36/6/1 29/6/1
f 42/6/1 36/6/1 41/6/1
f 43/6/1 36/6/1 42/6/1
f 45/6/1 39/6/1 38/6/1
f 46/6/1 39/6/1 45/6/1
f 47/6/1 35/6/1 39/6/1
f 47/6/1 39/6/1 46/6/1
f 48/6/1 41/6/1 40/6/1
f 48/6/1 42/6/1 41/6/1
f 49/6/1 42/6/1 48/6/1
f 50/6/1 42/6/1 49/6/1
f 51/6/1 46/6/1 45/6/1
f 51/6/1 45/6/1 44/6/1
f 53/5/1 49/5/1 48/5/1
f 54/6/1 50/6/1 49/6/1
f 54/6/1 51/6/1 50/6/1
f 54/5/1 49/5/1 53/5/1
f 55/6/1 51/6/1 54/6/1
f 56/6/1 46/6/1 51/6/1
f 56/6/1 51/6/1 55/6/1
f 57/6/1 46/6/1 56/6/1
f 58/1/1 53/1/1 52/1/1
f 58/1/1 55/1/1 54/1/1
f 58/1/1 54/1/1 53/1/1
f 59/6/1 56/6/1 55/6/1
f 59/1/1 55/1/1 58/1/1
f 60/6/1 56/6/1 59/6/1
f 61/6/1 56/6/1 60/6/1
f 62/1/1 60/1/1 59/1/1
f 63/1/1 60/1/1 62/1/1
f 64/1/1 58/1/1 52/1/1
f 65/3/1 59/3/1 58/3/1
f 65/1/1 58/1/1 64/1/1
f 66/1/1 62/1/1 59/1/1
f 66/3/1 59/3/1 65/3/1
f 67/1/1 62/1/1 66/1/1
f 68/1/1 62/1/1 67/1/1
f 69/1/1 64/1/1 52/1/1
f 69/4/1 65/4/1 64/4/1
f 70/1/1 67/1/1 66/1/1
f 70/4/1 65/4/1 69/4/1
f 70/1/1 66/1/1 65/1/1
f 71/1/1 67/1/1 70/1/1
f 72/1/1 67/1/1 71/1/1
f 73/1/1 69/1/1 52/1/1
f 73/1/1 70/1/1 69/1/1
f 73/1/1 71/1/1 70/1/1
f 74/1/1 71/1/1 73/1/1
f 77/6/1 76/6/1 75/6/1
f 78/6/1 76/6/1 77/6/1
f 82/6/1 80/6/1 79/6/1
f 82/6/1 81/6/1 80/6/1
f 83/6/1 81/6/1 82/6/1
f 86/6/1 85/6/1 84/6/1
f 87/6/1 85/6/1 86/6/1
f 88/2/1 87/2/1 86/2/1
f 89/2/1 87/2/1 88/2/1
f 92/1/1 91/1/1 90/1/1
f 93/1/1 91/1/1 92/1/1
f 94/1/1 91/1/1 93/1/1
f 95/1/1 91/1/1 94/1/1
f 96/1/1 91/1/1 95/1/1
f 98/1/1 97/1/1 96/1/1
f 98/1/1 96/1/1 95/1/1
f 99/1/1 97/1/1 98/1/1
f 100/1/1 97/1/1 99/1/1
f 102/1/1 101/1/1 100/1/1
f 102/1/1 100/1/1 99/1/1
f 103/1/1 101/1/1 102/1/1
f 106/2/1 105/2/1 104/2/1
f 107/2/1 105/2/1 106/2/1
f 108/2/1 105/2/1 107/2/1
f 110/6/1 109/6/1 108/6/1
f 110/6/1 108/6/1 107/6/1
f 111/6/1 109/6/1 110/6/1
f 112/2/2 113/2/2 114/2/2
f 114/2/2 113/2/2 115/2/2
f 115/2/2 113/2/2 116/2/2
f 116/6/2 117/6/2 118/6/2
f 115/6/2 116/6/2 118/6/2
f 118/6/2 117/6/2 119/6/2
f 120/6/2 121/6/2 122/6/2
f 122/6/2 121/6/2 123/6/2
f 124/6/2 125/6/2 127/6/2
f 125/6/2 126/6/2 127/6/2
f 127/6/2 126/6/2 128/6/2
f 129/6/2 130/6/2 131/6/2
f 131/6/2 130/6/2 132/6/2
f 131/2/2 132/2/2 133/2/2
f 133/2/2 132/2/2 134/2/2
f 135/1/2 136/1/2 137/1/2
f 137/1/2 136/1/2 138/1/2
f 138/1/2 136/1/2 139/1/2
f 139/1/2 136/1/2 140/1/2
f 140/1/2 136/1/2 141/1/2
f 141/1/2 142/1/2 143/1/2
f 140/1/2 141/1/2 143/1/2
f 143/1/2 142/1/2 144/1/2
f 144/1/2 142/1/2 145/1/2
f 145/1/2 146/1/2 147/1/2
f 144/1/2 145/1/2 147/1/2
f 147/1/2 146/1/2 148/1/2
f 149/2/2 150/2/2 151/2/2
f 151/2/2 150/2/2 152/2/2
f 152/2/2 150/2/2 153/2/2
f 153/6/2 154/6/2 156/6/2
f 152/6/2 153/6/2 156/6/2
f 156/6/2 154/6/2 157/6/2
f 157/6/2 154/6/2 158/6/2
f 155/6/2 156/6/2 162/6/2
f 156/6/2 157/6/2 162/6/2
f 162/6/2 157/6/2 163/6/2
f 163/6/2 157/6/2 164/6/2
f 159/6/2 160/6/2 165/6/2
f 165/6/2 160/6/2 166/6/2
f 161/6/2 162/6/2 168/6/2
f 162/6/2 163/6/2 168/6/2
f 168/6/2 163/6/2 169/6/2
f 166/6/2 167/6/2 171/6/2
f 161/6/2 168/6/2 173/6/2
f 173/6/2 168/6/2 174/6/2
f 174/6/2 168/6/2 175/6/2
f 170/6/2 171/6/2 177/6/2
f 177/6/2 171/6/2 178/6/2
f 171/6/2 167/6/2 179/6/2
f 178/6/2 171/6/2 179/6/2
f 172/6/2 173/6/2 180/6/2
f 173/6/2 174/6/2 180/6/2
f 180/6/2 174/6/2 181/6/2
f 181/6/2 174/6/2 182/6/2
f 177/6/2 178/6/2 183/6/2
f 176/6/2 177/6/2 183/6/2
f 180/5/2 181/5/2 185/5/2
f 181/6/2 182/6/2 186/6/2
f 182/6/2 183/6/2 186/6/2
f 185/5/2 181/5/2 186/5/2
f 186/6/2 183/6/2 187/6/2
f 183/6/2 178/6/2 188/6/2
f 187/6/2 183/6/2 188/6/2
f 188/6/2 178/6/2 189/6/2
f 184/1/2 185/1/2 190/1/2
f 186/1/2 187/1/2 190/1/2
f 185/1/2 186/1/2 190/1/2
f 187/6/2 188/6/2 191/6/2
f 190/1/2 187/1/2 191/1/2
f 191/6/2 188/6/2 192/6/2
f 192/6/2 188/6/2 193/6/2
f 191/1/2 192/1/2 194/1/2
f 194/1/2 192/1/2 195/1/2
f 184/1/2 190/1/2 196/1/2
f 190/3/2 191/3/2 197/3/2
f 196/1/2 190/1/2 197/1/2
f 191/1/2 194/1/2 198/1/2
f 197/3/2 191/3/2 198/3/2
f 198/1/2 194/1/2 199/1/2
f 199/1/2 194/1/2 200/1/2
f 184/1/2 196/1/2 201/1/2
f 196/4/2 197/4/2 201/4/2
f 198/1/2 199/1/2 202/1/2
f 201/4/2 197/4/2 202/4/2
f 197/1/2 198/1/2 202/1/2
f 202/1/2 199/1/2 203/1/2
f 203/1/2 199/1/2 204/1/2
f 184/1/2 201/1/2 205/1/2
f 201/1/2 202/1/2 205/1/2
f 202/1/2 203/1/2 205/1/2
f 205/1/2 203/1/2 206/1/2
f 207/6/2 208/6/2 210/6/2
f 210/6/2 208/6/2 211/6/2
f 209/5/2 210/5/2 214/5/2
f 211/5/2 212/5/2 214/5/2
f 210/5/2 211/5/2 214/5/2
f 214/5/2 212/5/2 215/5/2
f 215/5/2 212/5/2 216/5/2
f 213/5/2 214/5/2 218/5/2
f 214/5/2 215/5/2 218/5/2
f 218/5/2 215/5/2 219/5/2
f 219/5/2 215/5/2 220/5/2
f 217/5/2 218/5/2 221/5/2
f 218/5/2 219/5/2 221/5/2
f 221/5/2 219/5/2 222/5/2
f 226/6/3 224/6/3 223/6/3
f 227/2/3 225/2/3 224/2/3
f 227/6/3 224/6/3 226/6/3
f 228/2/3 225/2/3 227/2/3
f 231/1/3 230/1/3 229/1/3
f 232/1/3 230/1/3 231/1/3
f 233/1/3 230/1/3 232/1/3
f 234/1/3 230/1/3 233/1/3
f 236/1/3 231/1/3 229/1/3
f 238/1/3 235/1/3 234/1/3
f 238/1/3 234/1/3 233/1/3
f 239/1/3 235/1/3 238/1/3
f 240/1/3 235/1/3 239/1/3
f 241/1/3 237/1/3 236/1/3
f 241/1/3 236/1/3 229/1/3
f 241/1/3 239/1/3 238/1/3
f 241/1/3 238/1/3 237/1/3
f 242/1/3 239/1/3 241/1/3
f 248/1/3 247/1/3 246/1/3
f 249/1/3 247/1/3 248/1/3
f 250/6/3 244/6/3 243/6/3
f 251/5/3 245/5/3 244/5/3
f 251/6/3 244/6/3 250/6/3
f 252/5/3 245/5/3 251/5/3
f 257/1/3 256/1/3 255/1/3
f 258/1/3 256/1/3 257/1/3
f 259/6/3 254/6/3 253/6/3
f 260/6/3 254/6/3 259/6/3
f 265/5/3 262/5/3 261/5/3
f 266/5/3 262/5/3 265/5/3
f 269/1/3 268/1/3 267/1/3
f 270/1/3 268/1/3 269/1/3
f 271/6/3 264/6/3 263/6/3
f 272/6/3 264/6/3 271/6/3
f 275/5/3 274/5/3 273/5/3
f 276/5/3 274/5/3 275/5/3
f 281/5/3 278/5/3 277/5/3
f 282/5/3 278/5/3 281/5/3
f 283/2/3 280/2/3 279/2/3
f 284/2/3 280/2/3 283/2/3
f 287/2/3 286/2/3 285/2/3
f 288/2/3 286/2/3 287/2/3
f 291/5/3 290/5/3 289/5/3
f 292/5/3 290/5/3 291/5/3
f 297/5/3 294/5/3 293/5/3
f 298/5/3 294/5/3 297/5/3
f 299/6/3 296/6/3 295/6/3
f 300/6/3 296/6/3 299/6/3
f 303/6/3 302/6/3 301/6/3
f 304/6/3 302/6/3 303/6/3
f 307/5/3 306/5/3 305/5/3
f 308/5/3 306/5/3 307/5/3
f 311/6/3 310/6/3 309/6/3
f 312/6/3 310/6/3 311/6/3
f 315/6/3 314/6/3 313/6/3
f 316/6/3 314/6/3 315/6/3
f 317/1/4 318/1/4 319/1/4
f 319/1/4 318/1/4 320/1/4
f 323/1/4 324/1/4 325/1/4
f 325/1/4 324/1/4 326/1/4
f 321/1/4 322/1/4 327/1/4
f 327/1/4 322/1/4 328/1/4
f 329/5/4 330/5/4 331/5/4
f 331/5/4 330/5/4 332/5/4
f 335/1/4 336/1/4 337/1/4
f 337/1/4 336/1/4 338/1/4
f 333/1/4 334/1/4 341/1/4
f 341/1/4 334/1/4 342/1/4
f 339/5/4 340/5/4 343/5/4
f 343/5/4 340/5/4 344/5/4
f 345/1/4 346/1/4 347/1/4
f 347/1/4 346/1/4 348/1/4
f 349/5/4 350/5/4 353/5/4
f 353/5/4 350/5/4 354/5/4
f 351/2/4 352/2/4 357/2/4
f 357/2/4 352/2/4 358/2/4
f 355/1/4 356/1/4 359/1/4
f 359/1/4 356/1/4 362/1/4
f 360/2/4 361/2/4 363/2/4
f 363/2/4 361/2/4 364/2/4
f 362/1/4 356/1/4 367/1/4
f 367/1/4 356/1/4 368/1/4
f 365/5/4 366/5/4 369/5/4
f 369/5/4 366/5/4 370/5/4
f 371/6/4 372/6/4 375/6/4
f 375/6/4 372/6/4 376/6/4
f 373/6/4 374/6/4 377/6/4
f 377/6/4 374/6/4 378/6/4
f 377/1/4 378/1/4 381/1/4
f 381/1/4 378/1/4 382/1/4
f 379/6/4 380/6/4 383/6/4
f 383/6/4 380/6/4 384/6/4
f 381/6/4 382/6/4 385/6/4
f 385/6/4 382/6/4 386/6/4
f 387/6/4 388/6/4 389/6/4
f 389/6/4 388/6/4 390/6/4
f 391/6/4 392/6/4 393/6/4
f 393/6/4 392/6/4 394/6/4
f 394/6/4 392/6/4 396/6/4
f 395/6/4 396/6/4 399/6/4
f 396/6/4 392/6/4 400/6/4
f 399/6/4 396/6/4 400/6/4
f 397/6/4 398/6/4 401/6/4
f 401/6/4 398/6/4 402/6/4
f 403/5/4 404/5/4 406/5/4
f 406/5/4 404/5/4 407/5/4
f 405/6/4 406/6/4 408/6/4
f 408/6/4 406/6/4 409/6/4
f 410/6/4 411/6/4 412/6/4
f 412/6/4 411/6/4 413/6/4
f 413/5/4 414/5/4 415/5/4
f 415/5/4 414/5/4 416/5/4
f 417/6/4 418/6/4 420/6/4
f 420/6/4 418/6/4 421/6/4
f 419/6/4 420/6/4 422/6/4
f 420/6/4 421/6/4 422/6/4
f 422/6/4 421/6/4 423/6/4
f 423/6/4 421/6/4 424/6/4
f 423/6/4 424/6/4 425/6/4
f 425/6/4 424/6/4 426/6/4
f 427/6/4 428/6/4 429/6/4
f 429/6/4 428/6/4 430/6/4
f 435/2/5 432/2/5 431/2/5
f 436/2/5 432/2/5 435/2/5
f 437/2/5 434/2/5 433/2/5
f 438/2/5 434/2/5 437/2/5
f 443/6/5 440/6/5 439/6/5
f 444/6/5 440/6/5 443/6/5
f 445/6/5 442/6/5 441/6/5
f 446/6/5 442/6/5 445/6/5
f 449/6/5 448/6/5 447/6/5
f 450/6/5 448/6/5 449/6/5
f 451/6/5 448/6/5 450/6/5
f 452/6/5 448/6/5 451/6/5
f 457/6/5 454/6/5 453/6/5
f 458/6/5 451/6/5 450/6/5
f 459/6/5 451/6/5 458/6/5
f 460/6/5 456/6/5 455/6/5
f 461/6/5 459/6/5 458/6/5
f 461/6/5 460/6/5 459/6/5
f 461/6/5 457/6/5 453/6/5
f 461/6/5 458/6/5 457/6/5
f 462/6/5 460/6/5 461/6/5
f 463/6/5 456/6/5 460/6/5
f 463/6/5 460/6/5 462/6/5
f 464/6/5 456/6/5 463/6/5
f 465/6/5 463/6/5 462/6/5
f 466/6/5 463/6/5 465/6/5
f 467/6/5 463/6/5 466/6/5
f 468/6/5 463/6/5 467/6/5
f 469/6/5 467/6/5 466/6/5
f 470/6/5 467/6/5 469/6/5
f 473/6/5 472/6/5 471/6/5
f 474/6/5 472/6/5 473/6/5
f 479/5/5 476/5/5 475/5/5
f 480/5/5 476/5/5 479/5/5
f 481/5/5 478/5/5 477/5/5
f 482/5/5 478/5/5 481/5/5
f 487/5/5 484/5/5 483/5/5
f 488/5/5 484/5/5 487/5/5
f 491/5/5 486/5/5 485/5/5
f 492/5/5 486/5/5 491/5/5
f 493/6/5 489/6/5 488/6/5
f 494/6/5 489/6/5 493/6/5
f 495/6/5 491/6/5 490/6/5
f 496/6/5 491/6/5 495/6/5
f 501/5/5 498/5/5 497/5/5
f 502/5/5 498/5/5 501/5/5
f 503/5/5 500/5/5 499/5/5
f 504/5/5 500/5/5 503/5/5
f 507/6/5 506/6/5 505/6/5
f 508/6/5 506/6/5 507/6/5
f 513/5/5 510/5/5 509/5/5
f 514/5/5 510/5/5 513/5/5
f 515/5/5 512/5/5 511/5/5
f 516/5/5 512/5/5 515/5/5
f 519/6/5 518/6/5 517/6/5
f 520/6/5 518/6/5 519/6/5
f 523/1/5 522/1/5 521/1/5
f 524/1/5 522/1/5 523/1/5
f 527/6/5 526/6/5 525/6/5
f 528/6/5 526/6/5 527/6/5
f 531/1/5 530/1/5 529/1/5
f 532/1/5 530/1/5 531/1/5
f 535/1/5 534/1/5 533/1/5
f 536/1/5 534/1/5 535/1/5
f 537/2/6 538/2/6 541/2/6
f 541/2/6 538/2/6 542/2/6
f 539/2/6 540/2/6 543/2/6
f 543/2/6 540/2/6 544/2/6
f 545/5/6 546/5/6 549/5/6
f 549/5/6 546/5/6 550/5/6
f 547/5/6 548/5/6 551/5/6
f 551/5/6 548/5/6 552/5/6
f 553/5/6 554/5/6 557/5/6
f 557/5/6 554/5/6 558/5/6
f 555/5/6 556/5/6 559/5/6
f 559/5/6 556/5/6 560/5/6
f 561/6/6 562/6/6 565/6/6
f 565/6/6 562/6/6 566/6/6
f 563/6/6 564/6/6 567/6/6
f 567/6/6 564/6/6 568/6/6
f 569/5/6 570/5/6 573/5/6
f 573/5/6 570/5/6 574/5/6
f 571/5/6 572/5/6 575/5/6
f 575/5/6 572/5/6 576/5/6
f 577/6/6 578/6/6 579/6/6
f 579/6/6 578/6/6 580/6/6
f 581/6/6 582/6/6 585/6/6
f 583/6/6 584/6/6 585/6/6
f 582/6/6 583/6/6 585/6/6
f 585/6/6 584/6/6 586/6/6
f 587/6/6 588/6/6 591/6/6
f 588/1/6 589/1/6 592/1/6
f 591/6/6 588/6/6 592/6/6
f 589/6/6 590/6/6 593/6/6
f 592/1/6 589/1/6 593/1/6
f 593/6/6 590/6/6 594/6/6
f 595/1/6 596/1/6 597/1/6
f 597/1/6 596/1/6 598/1/6
f 599/1/6 600/1/6 601/1/6
f 601/1/6 600/1/6 602/1/6
f 603/2/6 604/2/6 605/2/6
f 605/2/6 604/2/6 606/2/6
f 607/1/6 608/1/6 609/1/6
f 609/1/6 608/1/6 610/1/6
f 611/1/6 612/1/6 615/1/6
f 613/1/6 614/1/6 616/1/6
f 611/1/6 615/1/6 617/1/6
f 615/1/6 616/1/6 617/1/6
f 616/1/6 614/1/6 618/1/6
f 617/1/6 616/1/6 618/1/6
f 619/1/6 620/1/6 621/1/6
f 621/1/6 620/1/6 622/1/6
f 623/1/6 624/1/6 625/1/6
f 625/1/6 624/1/6 626/1/6
f 627/1/6 628/1/6 629/1/6
f 629/1/6 628/1/6 630/1/6
f 631/1/6 632/1/6 633/1/6
f 633/1/6 632/1/6 634/1/6
