# MagicaVoxel @ Ephtracy

# group
o 

# material
mtllib green.mtl
usemtl palette

# normals
vn -1 0 0
vn 1 0 0
vn 0 0 1
vn 0 0 -1
vn 0 -1 0
vn 0 1 0

# texcoords
vt 0.0175781 0.5
vt 0.0527344 0.5
vt 0.0683594 0.5
vt 0.599609 0.5
vt 0.603516 0.5
vt 0.638672 0.5
vt 0.916016 0.5
vt 0.951172 0.5
vt 0.958984 0.5

# verts
v -0.3 0.2 0
v -0.3 0.2 -0.2
v -0.3 0.3 0.2
v -0.3 0.3 0
v -0.3 0.3 -0.2
v -0.3 0.3 -0.3
v -0.3 0.4 0.3
v -0.3 0.4 0.2
v -0.3 0.4 0.1
v -0.3 0.4 0
v -0.3 0.4 -0.3
v -0.3 0.5 0.4
v -0.3 0.5 0.3
v -0.3 0.5 0.2
v -0.3 0.5 0.1
v -0.3 0.5 0
v -0.3 0.6 0.4
v -0.3 0.6 0.2
v -0.2 0 0.3
v -0.2 0 0
v -0.2 0.1 0.3
v -0.2 0.1 0.2
v -0.2 0.1 0
v -0.2 0.1 -0.1
v -0.2 0.2 0.4
v -0.2 0.2 0.2
v -0.2 0.2 0
v -0.2 0.2 -0.1
v -0.2 0.2 -0.2
v -0.2 0.2 -0.3
v -0.2 0.3 0.5
v -0.2 0.3 0.4
v -0.2 0.3 0.3
v -0.2 0.3 0.2
v -0.2 0.3 0
v -0.2 0.3 -0.2
v -0.2 0.3 -0.3
v -0.2 0.3 -0.4
v -0.2 0.4 0.4
v -0.2 0.4 0.3
v -0.2 0.4 0.2
v -0.2 0.4 0
v -0.2 0.4 -0.2
v -0.2 0.4 -0.3
v -0.2 0.4 -0.4
v -0.2 0.5 0.6
v -0.2 0.5 0.5
v -0.2 0.5 0.4
v -0.2 0.5 0.3
v -0.2 0.5 0.2
v -0.2 0.5 0.1
v -0.2 0.5 0
v -0.2 0.5 -0.2
v -0.2 0.5 -0.4
v -0.2 0.6 0.6
v -0.2 0.6 0.5
v -0.2 0.6 0.4
v -0.2 0.6 0.2
v -0.2 0.6 0
v -0.2 0.6 -0.1
v -0.2 0.6 -0.2
v -0.2 0.7 0.7
v -0.2 0.7 0.6
v -0.2 0.7 0.5
v -0.2 0.7 0.4
v -0.2 0.7 0
v -0.2 0.7 -0.1
v -0.2 0.7 -0.2
v -0.2 0.8 0.6
v -0.2 0.8 0.4
v -0.2 0.9 0.4
v -0.2 0.9 0.2
v -0.2 0.9 0.1
v -0.2 0.9 0
v -0.2 1 0.6
v -0.2 1 0.5
v -0.2 1 0.2
v -0.2 1 0.1
v -0.2 1.1 0.6
v -0.2 1.1 0.5
v -0.2 1.1 0.3
v -0.2 1.1 0.2
v -0.2 1.2 0.7
v -0.2 1.2 0.6
v -0.2 1.2 0.4
v -0.2 1.2 0.3
v -0.2 1.3 0.6
v -0.2 1.3 0.4
v -0.1 0.2 -0.3
v -0.1 0.2 -0.4
v -0.1 0.3 -0.3
v -0.1 0.3 -0.4
v -0.1 0.4 -0.4
v -0.1 0.4 -0.6
v -0.1 0.5 -0.2
v -0.1 0.5 -0.4
v -0.1 0.5 -0.6
v -0.1 0.5 -0.8
v -0.1 0.6 -0.2
v -0.1 0.6 -0.3
v -0.1 0.6 -0.4
v -0.1 0.6 -0.8
v -0.1 0.7 0
v -0.1 0.7 -0.1
v -0.1 0.7 -0.2
v -0.1 0.7 -0.3
v -0.1 0.8 0
v -0.1 0.8 -0.1
v -0.1 0.8 -0.2
v -0.1 0.9 0.8
v -0.1 0.9 0.7
v -0.1 1 0.8
v -0.1 1 0.7
v -0.1 1.1 0.8
v -0.1 1.1 0.7
v 0.1 0 0.3
v 0.1 0 0
v 0.1 0.1 0.3
v 0.1 0.1 0.2
v 0.1 0.1 0
v 0.1 0.1 -0.1
v 0.1 0.2 0.2
v 0.1 0.2 -0.1
v -0.1 0 0.3
v -0.1 0 0
v -0.1 0.1 0.3
v -0.1 0.1 0.2
v -0.1 0.1 0
v -0.1 0.1 -0.1
v -0.1 0.2 0.2
v -0.1 0.2 -0.1
v 0.1 0.2 -0.3
v 0.1 0.2 -0.4
v 0.1 0.3 -0.3
v 0.1 0.3 -0.4
v 0.1 0.4 -0.4
v 0.1 0.4 -0.6
v 0.1 0.5 -0.2
v 0.1 0.5 -0.4
v 0.1 0.5 -0.6
v 0.1 0.5 -0.8
v 0.1 0.6 -0.2
v 0.1 0.6 -0.3
v 0.1 0.6 -0.4
v 0.1 0.6 -0.8
v 0.1 0.7 0
v 0.1 0.7 -0.1
v 0.1 0.7 -0.2
v 0.1 0.7 -0.3
v 0.1 0.8 0
v 0.1 0.8 -0.1
v 0.1 0.8 -0.2
v 0.1 0.9 0.8
v 0.1 0.9 0.7
v 0.1 1 0.8
v 0.1 1 0.7
v 0.1 1.1 0.8
v 0.1 1.1 0.7
v 0.2 0 0.3
v 0.2 0 0
v 0.2 0.1 0.3
v 0.2 0.1 0.2
v 0.2 0.1 0
v 0.2 0.1 -0.1
v 0.2 0.2 0.4
v 0.2 0.2 0.2
v 0.2 0.2 0
v 0.2 0.2 -0.1
v 0.2 0.2 -0.2
v 0.2 0.2 -0.3
v 0.2 0.3 0.5
v 0.2 0.3 0.4
v 0.2 0.3 0.3
v 0.2 0.3 0.2
v 0.2 0.3 0
v 0.2 0.3 -0.2
v 0.2 0.3 -0.3
v 0.2 0.3 -0.4
v 0.2 0.4 0.4
v 0.2 0.4 0.3
v 0.2 0.4 0.2
v 0.2 0.4 0
v 0.2 0.4 -0.2
v 0.2 0.4 -0.3
v 0.2 0.4 -0.4
v 0.2 0.5 0.6
v 0.2 0.5 0.5
v 0.2 0.5 0.4
v 0.2 0.5 0.3
v 0.2 0.5 0.2
v 0.2 0.5 0.1
v 0.2 0.5 0
v 0.2 0.5 -0.2
v 0.2 0.5 -0.4
v 0.2 0.6 0.6
v 0.2 0.6 0.5
v 0.2 0.6 0.4
v 0.2 0.6 0.2
v 0.2 0.6 0
v 0.2 0.6 -0.1
v 0.2 0.6 -0.2
v 0.2 0.7 0.7
v 0.2 0.7 0.6
v 0.2 0.7 0.5
v 0.2 0.7 0.4
v 0.2 0.7 0
v 0.2 0.7 -0.1
v 0.2 0.7 -0.2
v 0.2 0.8 0.6
v 0.2 0.8 0.4
v 0.2 0.9 0.4
v 0.2 0.9 0.2
v 0.2 0.9 0.1
v 0.2 0.9 0
v 0.2 1 0.6
v 0.2 1 0.5
v 0.2 1 0.2
v 0.2 1 0.1
v 0.2 1.1 0.6
v 0.2 1.1 0.5
v 0.2 1.1 0.3
v 0.2 1.1 0.2
v 0.2 1.2 0.7
v 0.2 1.2 0.6
v 0.2 1.2 0.4
v 0.2 1.2 0.3
v 0.2 1.3 0.6
v 0.2 1.3 0.4
v 0.3 0.2 0
v 0.3 0.2 -0.2
v 0.3 0.3 0.2
v 0.3 0.3 0
v 0.3 0.3 -0.2
v 0.3 0.3 -0.3
v 0.3 0.4 0.3
v 0.3 0.4 0.2
v 0.3 0.4 0.1
v 0.3 0.4 0
v 0.3 0.4 -0.3
v 0.3 0.5 0.4
v 0.3 0.5 0.3
v 0.3 0.5 0.2
v 0.3 0.5 0.1
v 0.3 0.5 0
v 0.3 0.6 0.4
v 0.3 0.6 0.2
v -0.1 0.9 0.8
v -0.1 1 0.8
v -0.1 1.1 0.8
v 0.1 0.9 0.8
v 0.1 1 0.8
v 0.1 1.1 0.8
v -0.2 0.7 0.7
v -0.2 1.2 0.7
v -0.1 0.9 0.7
v -0.1 1 0.7
v -0.1 1.1 0.7
v 0.1 0.9 0.7
v 0.1 1 0.7
v 0.1 1.1 0.7
v 0.2 0.7 0.7
v 0.2 1.2 0.7
v -0.2 0.5 0.6
v -0.2 0.6 0.6
v -0.2 0.7 0.6
v -0.2 1.2 0.6
v -0.2 1.3 0.6
v 0.2 0.5 0.6
v 0.2 0.6 0.6
v 0.2 0.7 0.6
v 0.2 1.2 0.6
v 0.2 1.3 0.6
v -0.2 0.3 0.5
v -0.2 0.5 0.5
v 0.2 0.3 0.5
v 0.2 0.5 0.5
v -0.3 0.5 0.4
v -0.3 0.6 0.4
v -0.2 0.2 0.4
v -0.2 0.3 0.4
v -0.2 0.5 0.4
v -0.2 0.6 0.4
v 0.2 0.2 0.4
v 0.2 0.3 0.4
v 0.2 0.5 0.4
v 0.2 0.6 0.4
v 0.3 0.5 0.4
v 0.3 0.6 0.4
v -0.3 0.4 0.3
v -0.3 0.5 0.3
v -0.2 0 0.3
v -0.2 0.1 0.3
v -0.2 0.4 0.3
v -0.2 0.5 0.3
v -0.1 0 0.3
v -0.1 0.1 0.3
v 0.1 0 0.3
v 0.1 0.1 0.3
v 0.2 0 0.3
v 0.2 0.1 0.3
v 0.2 0.4 0.3
v 0.2 0.5 0.3
v 0.3 0.4 0.3
v 0.3 0.5 0.3
v -0.3 0.3 0.2
v -0.3 0.4 0.2
v -0.2 0.1 0.2
v -0.2 0.2 0.2
v -0.2 0.3 0.2
v -0.2 0.4 0.2
v -0.1 0.1 0.2
v -0.1 0.2 0.2
v 0.1 0.1 0.2
v 0.1 0.2 0.2
v 0.2 0.1 0.2
v 0.2 0.2 0.2
v 0.2 0.3 0.2
v 0.2 0.4 0.2
v 0.3 0.3 0.2
v 0.3 0.4 0.2
v -0.3 0.2 0
v -0.3 0.3 0
v -0.2 0.2 0
v -0.2 0.3 0
v 0.2 0.2 0
v 0.2 0.3 0
v 0.3 0.2 0
v 0.3 0.3 0
v -0.2 1.2 0.4
v -0.2 1.3 0.4
v 0.2 1.2 0.4
v 0.2 1.3 0.4
v -0.2 1.1 0.3
v -0.2 1.2 0.3
v 0.2 1.1 0.3
v 0.2 1.2 0.3
v -0.3 0.5 0.2
v -0.3 0.6 0.2
v -0.2 0.5 0.2
v -0.2 0.6 0.2
v -0.2 1 0.2
v -0.2 1.1 0.2
v 0.2 0.5 0.2
v 0.2 0.6 0.2
v 0.2 1 0.2
v 0.2 1.1 0.2
v 0.3 0.5 0.2
v 0.3 0.6 0.2
v -0.2 0.9 0.1
v -0.2 1 0.1
v 0.2 0.9 0.1
v 0.2 1 0.1
v -0.3 0.4 0
v -0.3 0.5 0
v -0.2 0 0
v -0.2 0.1 0
v -0.2 0.4 0
v -0.2 0.5 0
v -0.2 0.7 0
v -0.2 0.9 0
v -0.1 0 0
v -0.1 0.1 0
v -0.1 0.7 0
v -0.1 0.8 0
v 0.1 0 0
v 0.1 0.1 0
v 0.1 0.7 0
v 0.1 0.8 0
v 0.2 0 0
v 0.2 0.1 0
v 0.2 0.4 0
v 0.2 0.5 0
v 0.2 0.7 0
v 0.2 0.9 0
v 0.3 0.4 0
v 0.3 0.5 0
v -0.2 0.1 -0.1
v -0.2 0.2 -0.1
v -0.1 0.1 -0.1
v -0.1 0.2 -0.1
v 0.1 0.1 -0.1
v 0.1 0.2 -0.1
v 0.2 0.1 -0.1
v 0.2 0.2 -0.1
v -0.3 0.2 -0.2
v -0.3 0.3 -0.2
v -0.2 0.2 -0.2
v -0.2 0.3 -0.2
v -0.2 0.5 -0.2
v -0.2 0.6 -0.2
v -0.2 0.7 -0.2
v -0.1 0.5 -0.2
v -0.1 0.6 -0.2
v -0.1 0.7 -0.2
v -0.1 0.8 -0.2
v 0.1 0.5 -0.2
v 0.1 0.6 -0.2
v 0.1 0.7 -0.2
v 0.1 0.8 -0.2
v 0.2 0.2 -0.2
v 0.2 0.3 -0.2
v 0.2 0.5 -0.2
v 0.2 0.6 -0.2
v 0.2 0.7 -0.2
v 0.3 0.2 -0.2
v 0.3 0.3 -0.2
v -0.3 0.3 -0.3
v -0.3 0.4 -0.3
v -0.2 0.2 -0.3
v -0.2 0.3 -0.3
v -0.2 0.4 -0.3
v -0.1 0.2 -0.3
v -0.1 0.3 -0.3
v -0.1 0.6 -0.3
v -0.1 0.7 -0.3
v 0.1 0.2 -0.3
v 0.1 0.3 -0.3
v 0.1 0.6 -0.3
v 0.1 0.7 -0.3
v 0.2 0.2 -0.3
v 0.2 0.3 -0.3
v 0.2 0.4 -0.3
v 0.3 0.3 -0.3
v 0.3 0.4 -0.3
v -0.2 0.3 -0.4
v -0.2 0.4 -0.4
v -0.2 0.5 -0.4
v -0.1 0.2 -0.4
v -0.1 0.3 -0.4
v -0.1 0.4 -0.4
v -0.1 0.5 -0.4
v 0.1 0.2 -0.4
v 0.1 0.3 -0.4
v 0.1 0.4 -0.4
v 0.1 0.5 -0.4
v 0.2 0.3 -0.4
v 0.2 0.4 -0.4
v 0.2 0.5 -0.4
v -0.1 0.4 -0.6
v -0.1 0.5 -0.6
v 0.1 0.4 -0.6
v 0.1 0.5 -0.6
v -0.1 0.5 -0.8
v -0.1 0.6 -0.8
v 0.1 0.5 -0.8
v 0.1 0.6 -0.8
v -0.2 0 0.3
v -0.1 0 0.3
v 0.1 0 0.3
v 0.2 0 0.3
v -0.2 0 0
v -0.1 0 0
v 0.1 0 0
v 0.2 0 0
v -0.2 0.1 0
v -0.1 0.1 0
v 0.1 0.1 0
v 0.2 0.1 0
v -0.2 0.1 -0.1
v -0.1 0.1 -0.1
v 0.1 0.1 -0.1
v 0.2 0.1 -0.1
v -0.2 0.2 0.4
v 0.2 0.2 0.4
v -0.1 0.2 0.3
v 0.1 0.2 0.3
v -0.2 0.2 0.2
v -0.1 0.2 0.2
v 0.1 0.2 0.2
v 0.2 0.2 0.2
v -0.3 0.2 0
v -0.2 0.2 0
v 0.2 0.2 0
v 0.3 0.2 0
v -0.2 0.2 -0.1
v -0.1 0.2 -0.1
v 0.1 0.2 -0.1
v 0.2 0.2 -0.1
v -0.3 0.2 -0.2
v -0.2 0.2 -0.2
v 0.2 0.2 -0.2
v 0.3 0.2 -0.2
v -0.2 0.2 -0.3
v -0.1 0.2 -0.3
v 0.1 0.2 -0.3
v 0.2 0.2 -0.3
v -0.1 0.2 -0.4
v 0.1 0.2 -0.4
v -0.2 0.3 0.5
v 0.2 0.3 0.5
v -0.2 0.3 0.4
v 0.2 0.3 0.4
v -0.3 0.3 0.2
v -0.2 0.3 0.2
v 0.2 0.3 0.2
v 0.3 0.3 0.2
v -0.3 0.3 0
v -0.2 0.3 0
v 0.2 0.3 0
v 0.3 0.3 0
v -0.3 0.3 -0.2
v -0.2 0.3 -0.2
v 0.2 0.3 -0.2
v 0.3 0.3 -0.2
v -0.3 0.3 -0.3
v -0.2 0.3 -0.3
v -0.1 0.3 -0.3
v 0.1 0.3 -0.3
v 0.2 0.3 -0.3
v 0.3 0.3 -0.3
v -0.2 0.3 -0.4
v -0.1 0.3 -0.4
v 0.1 0.3 -0.4
v 0.2 0.3 -0.4
v -0.3 0.4 0.3
v -0.2 0.4 0.3
v 0.2 0.4 0.3
v 0.3 0.4 0.3
v -0.3 0.4 0.2
v -0.2 0.4 0.2
v 0.2 0.4 0.2
v 0.3 0.4 0.2
v -0.1 0.4 -0.4
v 0.1 0.4 -0.4
v -0.1 0.4 -0.6
v 0.1 0.4 -0.6
v -0.2 0.5 0.6
v 0.2 0.5 0.6
v -0.2 0.5 0.5
v 0.2 0.5 0.5
v -0.3 0.5 0.4
v -0.2 0.5 0.4
v 0.2 0.5 0.4
v 0.3 0.5 0.4
v -0.3 0.5 0.3
v -0.2 0.5 0.3
v 0.2 0.5 0.3
v 0.3 0.5 0.3
v -0.1 0.5 -0.6
v 0.1 0.5 -0.6
v -0.1 0.5 -0.8
v 0.1 0.5 -0.8
v -0.2 0.7 0.7
v 0.2 0.7 0.7
v -0.2 0.7 0.6
v 0.2 0.7 0.6
v -0.1 0.9 0.8
v 0.1 0.9 0.8
v -0.1 0.9 0.7
v 0.1 0.9 0.7
v -0.2 0.1 0.3
v -0.1 0.1 0.3
v 0.1 0.1 0.3
v 0.2 0.1 0.3
v -0.2 0.1 0.2
v -0.1 0.1 0.2
v 0.1 0.1 0.2
v 0.2 0.1 0.2
v -0.3 0.4 0
v -0.2 0.4 0
v 0.2 0.4 0
v 0.3 0.4 0
v -0.2 0.4 -0.2
v 0.2 0.4 -0.2
v -0.3 0.4 -0.3
v -0.2 0.4 -0.3
v 0.2 0.4 -0.3
v 0.3 0.4 -0.3
v -0.3 0.5 0.2
v -0.2 0.5 0.2
v 0.2 0.5 0.2
v 0.3 0.5 0.2
v -0.3 0.5 0.1
v -0.2 0.5 0.1
v 0.2 0.5 0.1
v 0.3 0.5 0.1
v -0.3 0.5 0
v -0.2 0.5 0
v 0.2 0.5 0
v 0.3 0.5 0
v -0.2 0.5 -0.2
v -0.1 0.5 -0.2
v 0.1 0.5 -0.2
v 0.2 0.5 -0.2
v -0.2 0.5 -0.4
v -0.1 0.5 -0.4
v 0.1 0.5 -0.4
v 0.2 0.5 -0.4
v -0.3 0.6 0.4
v -0.2 0.6 0.4
v 0.2 0.6 0.4
v 0.3 0.6 0.4
v -0.3 0.6 0.2
v -0.2 0.6 0.2
v 0.2 0.6 0.2
v 0.3 0.6 0.2
v -0.1 0.6 -0.3
v 0.1 0.6 -0.3
v -0.1 0.6 -0.4
v 0.1 0.6 -0.4
v -0.1 0.6 -0.8
v 0.1 0.6 -0.8
v -0.2 0.7 0
v -0.1 0.7 0
v 0.1 0.7 0
v 0.2 0.7 0
v -0.2 0.7 -0.1
v -0.1 0.7 -0.1
v 0.1 0.7 -0.1
v 0.2 0.7 -0.1
v -0.2 0.7 -0.2
v -0.1 0.7 -0.2
v 0.1 0.7 -0.2
v 0.2 0.7 -0.2
v -0.1 0.7 -0.3
v 0.1 0.7 -0.3
v -0.1 0.8 0
v 0.1 0.8 0
v -0.1 0.8 -0.1
v 0.1 0.8 -0.1
v -0.1 0.8 -0.2
v 0.1 0.8 -0.2
v -0.2 0.9 0.1
v 0.2 0.9 0.1
v -0.2 0.9 0
v 0.2 0.9 0
v -0.2 1 0.2
v 0.2 1 0.2
v -0.2 1 0.1
v 0.2 1 0.1
v -0.1 1.1 0.8
v 0.1 1.1 0.8
v -0.1 1.1 0.7
v 0.1 1.1 0.7
v -0.2 1.1 0.3
v 0.2 1.1 0.3
v -0.2 1.1 0.2
v 0.2 1.1 0.2
v -0.2 1.2 0.7
v 0.2 1.2 0.7
v -0.2 1.2 0.6
v 0.2 1.2 0.6
v -0.2 1.2 0.4
v 0.2 1.2 0.4
v -0.2 1.2 0.3
v 0.2 1.2 0.3
v -0.2 1.3 0.6
v 0.2 1.3 0.6
v -0.2 1.3 0.4
v 0.2 1.3 0.4

# faces
f 4/1/1 2/1/1 1/1/1
f 5/1/1 2/1/1 4/1/1
f 8/1/1 4/1/1 3/1/1
f 9/1/1 4/1/1 8/1/1
f 10/4/1 6/4/1 5/4/1
f 10/1/1 4/1/1 9/1/1
f 10/4/1 5/4/1 4/4/1
f 11/4/1 6/4/1 10/4/1
f 13/5/1 9/5/1 8/5/1
f 13/5/1 8/5/1 7/5/1
f 14/5/1 9/5/1 13/5/1
f 15/1/1 10/1/1 9/1/1
f 15/5/1 9/5/1 14/5/1
f 16/1/1 10/1/1 15/1/1
f 17/1/1 14/1/1 13/1/1
f 17/1/1 13/1/1 12/1/1
f 18/1/1 14/1/1 17/1/1
f 21/2/1 20/2/1 19/2/1
f 22/2/1 20/2/1 21/2/1
f 23/2/1 20/2/1 22/2/1
f 26/5/1 24/5/1 23/5/1
f 26/5/1 23/5/1 22/5/1
f 27/5/1 24/5/1 26/5/1
f 28/5/1 24/5/1 27/5/1
f 32/4/1 26/4/1 25/4/1
f 32/4/1 27/4/1 26/4/1
f 33/4/1 27/4/1 32/4/1
f 34/4/1 27/4/1 33/4/1
f 35/4/1 27/4/1 34/4/1
f 36/5/1 30/5/1 29/5/1
f 37/5/1 30/5/1 36/5/1
f 39/5/1 32/5/1 31/5/1
f 39/5/1 33/5/1 32/5/1
f 40/4/1 34/4/1 33/4/1
f 40/5/1 33/5/1 39/5/1
f 41/4/1 34/4/1 40/4/1
f 44/7/1 38/7/1 37/7/1
f 45/7/1 38/7/1 44/7/1
f 47/5/1 39/5/1 31/5/1
f 48/4/1 40/4/1 39/4/1
f 48/5/1 39/5/1 47/5/1
f 49/4/1 40/4/1 48/4/1
f 52/7/1 43/7/1 42/7/1
f 53/5/1 45/5/1 44/5/1
f 53/5/1 44/5/1 43/5/1
f 53/7/1 43/7/1 52/7/1
f 54/5/1 45/5/1 53/5/1
f 55/5/1 47/5/1 46/5/1
f 55/5/1 48/5/1 47/5/1
f 56/5/1 48/5/1 55/5/1
f 57/5/1 48/5/1 56/5/1
f 58/7/1 51/7/1 50/7/1
f 58/7/1 52/7/1 51/7/1
f 59/5/1 53/5/1 52/5/1
f 59/7/1 52/7/1 58/7/1
f 60/5/1 53/5/1 59/5/1
f 61/5/1 53/5/1 60/5/1
f 63/1/1 56/1/1 55/1/1
f 64/5/1 57/5/1 56/5/1
f 64/5/1 58/5/1 57/5/1
f 64/1/1 56/1/1 63/1/1
f 64/5/1 59/5/1 58/5/1
f 64/5/1 60/5/1 59/5/1
f 65/5/1 60/5/1 64/5/1
f 66/5/1 60/5/1 65/5/1
f 67/7/1 61/7/1 60/7/1
f 67/5/1 60/5/1 66/5/1
f 68/7/1 61/7/1 67/7/1
f 69/1/1 63/1/1 62/1/1
f 69/6/1 64/6/1 63/6/1
f 69/6/1 65/6/1 64/6/1
f 70/5/1 66/5/1 65/5/1
f 70/6/1 65/6/1 69/6/1
f 71/1/1 70/1/1 69/1/1
f 71/5/1 66/5/1 70/5/1
f 72/5/1 66/5/1 71/5/1
f 73/5/1 66/5/1 72/5/1
f 74/5/1 66/5/1 73/5/1
f 75/1/1 69/1/1 62/1/1
f 75/1/1 71/1/1 69/1/1
f 75/1/1 72/1/1 71/1/1
f 76/1/1 72/1/1 75/1/1
f 77/5/1 73/5/1 72/5/1
f 77/1/1 72/1/1 76/1/1
f 78/5/1 73/5/1 77/5/1
f 79/8/1 76/8/1 75/8/1
f 79/1/1 75/1/1 62/1/1
f 80/1/1 77/1/1 76/1/1
f 80/8/1 76/8/1 79/8/1
f 81/1/1 77/1/1 80/1/1
f 82/1/1 77/1/1 81/1/1
f 83/1/1 79/1/1 62/1/1
f 83/1/1 80/1/1 79/1/1
f 83/1/1 81/1/1 80/1/1
f 84/1/1 81/1/1 83/1/1
f 85/1/1 81/1/1 84/1/1
f 86/1/1 81/1/1 85/1/1
f 87/1/1 85/1/1 84/1/1
f 88/1/1 85/1/1 87/1/1
f 91/5/1 90/5/1 89/5/1
f 92/5/1 90/5/1 91/5/1
f 96/4/1 94/4/1 93/4/1
f 97/4/1 94/4/1 96/4/1
f 99/5/1 96/5/1 95/5/1
f 100/5/1 96/5/1 99/5/1
f 101/7/1 98/7/1 97/7/1
f 101/5/1 96/5/1 100/5/1
f 101/7/1 97/7/1 96/7/1
f 102/7/1 98/7/1 101/7/1
f 105/7/1 100/7/1 99/7/1
f 106/7/1 100/7/1 105/7/1
f 107/8/1 104/8/1 103/8/1
f 108/5/1 105/5/1 104/5/1
f 108/8/1 104/8/1 107/8/1
f 109/5/1 105/5/1 108/5/1
f 112/3/1 111/3/1 110/3/1
f 113/3/1 111/3/1 112/3/1
f 114/2/1 113/2/1 112/2/1
f 115/2/1 113/2/1 114/2/1
f 118/2/1 117/2/1 116/2/1
f 119/2/1 117/2/1 118/2/1
f 120/2/1 117/2/1 119/2/1
f 122/5/1 121/5/1 120/5/1
f 122/5/1 120/5/1 119/5/1
f 123/5/1 121/5/1 122/5/1
f 124/2/2 125/2/2 126/2/2
f 126/2/2 125/2/2 127/2/2
f 127/2/2 125/2/2 128/2/2
f 128/5/2 129/5/2 130/5/2
f 127/5/2 128/5/2 130/5/2
f 130/5/2 129/5/2 131/5/2
f 132/5/2 133/5/2 134/5/2
f 134/5/2 133/5/2 135/5/2
f 136/4/2 137/4/2 139/4/2
f 139/4/2 137/4/2 140/4/2
f 138/5/2 139/5/2 142/5/2
f 142/5/2 139/5/2 143/5/2
f 140/7/2 141/7/2 144/7/2
f 143/5/2 139/5/2 144/5/2
f 139/7/2 140/7/2 144/7/2
f 144/7/2 141/7/2 145/7/2
f 142/7/2 143/7/2 148/7/2
f 148/7/2 143/7/2 149/7/2
f 146/8/2 147/8/2 150/8/2
f 147/5/2 148/5/2 151/5/2
f 150/8/2 147/8/2 151/8/2
f 151/5/2 148/5/2 152/5/2
f 153/3/2 154/3/2 155/3/2
f 155/3/2 154/3/2 156/3/2
f 155/2/2 156/2/2 157/2/2
f 157/2/2 156/2/2 158/2/2
f 159/2/2 160/2/2 161/2/2
f 161/2/2 160/2/2 162/2/2
f 162/2/2 160/2/2 163/2/2
f 163/5/2 164/5/2 166/5/2
f 162/5/2 163/5/2 166/5/2
f 166/5/2 164/5/2 167/5/2
f 167/5/2 164/5/2 168/5/2
f 165/4/2 166/4/2 172/4/2
f 166/4/2 167/4/2 172/4/2
f 172/4/2 167/4/2 173/4/2
f 173/4/2 167/4/2 174/4/2
f 174/4/2 167/4/2 175/4/2
f 169/5/2 170/5/2 176/5/2
f 176/5/2 170/5/2 177/5/2
f 171/5/2 172/5/2 179/5/2
f 172/5/2 173/5/2 179/5/2
f 173/4/2 174/4/2 180/4/2
f 179/5/2 173/5/2 180/5/2
f 180/4/2 174/4/2 181/4/2
f 177/7/2 178/7/2 184/7/2
f 184/7/2 178/7/2 185/7/2
f 171/5/2 179/5/2 187/5/2
f 179/4/2 180/4/2 188/4/2
f 187/5/2 179/5/2 188/5/2
f 188/4/2 180/4/2 189/4/2
f 182/7/2 183/7/2 192/7/2
f 184/5/2 185/5/2 193/5/2
f 183/5/2 184/5/2 193/5/2
f 192/7/2 183/7/2 193/7/2
f 193/5/2 185/5/2 194/5/2
f 186/5/2 187/5/2 195/5/2
f 187/5/2 188/5/2 195/5/2
f 195/5/2 188/5/2 196/5/2
f 196/5/2 188/5/2 197/5/2
f 190/7/2 191/7/2 198/7/2
f 191/7/2 192/7/2 198/7/2
f 192/5/2 193/5/2 199/5/2
f 198/7/2 192/7/2 199/7/2
f 199/5/2 193/5/2 200/5/2
f 200/5/2 193/5/2 201/5/2
f 195/1/2 196/1/2 203/1/2
f 196/5/2 197/5/2 204/5/2
f 197/5/2 198/5/2 204/5/2
f 203/1/2 196/1/2 204/1/2
f 198/5/2 199/5/2 204/5/2
f 199/5/2 200/5/2 204/5/2
f 204/5/2 200/5/2 205/5/2
f 205/5/2 200/5/2 206/5/2
f 200/7/2 201/7/2 207/7/2
f 206/5/2 200/5/2 207/5/2
f 207/7/2 201/7/2 208/7/2
f 202/1/2 203/1/2 209/1/2
f 203/6/2 204/6/2 209/6/2
f 204/6/2 205/6/2 209/6/2
f 205/5/2 206/5/2 210/5/2
f 209/6/2 205/6/2 210/6/2
f 209/1/2 210/1/2 211/1/2
f 210/5/2 206/5/2 211/5/2
f 211/5/2 206/5/2 212/5/2
f 212/5/2 206/5/2 213/5/2
f 213/5/2 206/5/2 214/5/2
f 202/1/2 209/1/2 215/1/2
f 209/1/2 211/1/2 215/1/2
f 211/1/2 212/1/2 215/1/2
f 215/1/2 212/1/2 216/1/2
f 212/5/2 213/5/2 217/5/2
f 216/1/2 212/1/2 217/1/2
f 217/5/2 213/5/2 218/5/2
f 215/8/2 216/8/2 219/8/2
f 202/1/2 215/1/2 219/1/2
f 216/1/2 217/1/2 220/1/2
f 219/8/2 216/8/2 220/8/2
f 220/1/2 217/1/2 221/1/2
f 221/1/2 217/1/2 222/1/2
f 202/1/2 219/1/2 223/1/2
f 219/1/2 220/1/2 223/1/2
f 220/1/2 221/1/2 223/1/2
f 223/1/2 221/1/2 224/1/2
f 224/1/2 221/1/2 225/1/2
f 225/1/2 221/1/2 226/1/2
f 224/1/2 225/1/2 227/1/2
f 227/1/2 225/1/2 228/1/2
f 229/1/2 230/1/2 232/1/2
f 232/1/2 230/1/2 233/1/2
f 231/1/2 232/1/2 236/1/2
f 236/1/2 232/1/2 237/1/2
f 233/4/2 234/4/2 238/4/2
f 237/1/2 232/1/2 238/1/2
f 232/4/2 233/4/2 238/4/2
f 238/4/2 234/4/2 239/4/2
f 236/5/2 237/5/2 241/5/2
f 235/5/2 236/5/2 241/5/2
f 241/5/2 237/5/2 242/5/2
f 237/1/2 238/1/2 243/1/2
f 242/5/2 237/5/2 243/5/2
f 243/1/2 238/1/2 244/1/2
f 241/1/2 242/1/2 245/1/2
f 240/1/2 241/1/2 245/1/2
f 245/1/2 242/1/2 246/1/2
f 250/3/3 248/3/3 247/3/3
f 251/2/3 249/2/3 248/2/3
f 251/3/3 248/3/3 250/3/3
f 252/2/3 249/2/3 251/2/3
f 255/1/3 254/1/3 253/1/3
f 256/1/3 254/1/3 255/1/3
f 257/1/3 254/1/3 256/1/3
f 258/1/3 255/1/3 253/1/3
f 260/1/3 254/1/3 257/1/3
f 261/1/3 259/1/3 258/1/3
f 261/1/3 260/1/3 259/1/3
f 261/1/3 258/1/3 253/1/3
f 262/1/3 254/1/3 260/1/3
f 262/1/3 260/1/3 261/1/3
f 268/5/3 264/5/3 263/5/3
f 269/1/3 265/1/3 264/1/3
f 269/5/3 264/5/3 268/5/3
f 270/1/3 265/1/3 269/1/3
f 271/1/3 267/1/3 266/1/3
f 272/1/3 267/1/3 271/1/3
f 275/5/3 274/5/3 273/5/3
f 276/5/3 274/5/3 275/5/3
f 281/1/3 278/1/3 277/1/3
f 282/1/3 278/1/3 281/1/3
f 283/4/3 280/4/3 279/4/3
f 284/4/3 280/4/3 283/4/3
f 287/1/3 286/1/3 285/1/3
f 288/1/3 286/1/3 287/1/3
f 293/5/3 290/5/3 289/5/3
f 294/5/3 290/5/3 293/5/3
f 295/2/3 292/2/3 291/2/3
f 296/2/3 292/2/3 295/2/3
f 299/2/3 298/2/3 297/2/3
f 300/2/3 298/2/3 299/2/3
f 303/5/3 302/5/3 301/5/3
f 304/5/3 302/5/3 303/5/3
f 309/1/3 306/1/3 305/1/3
f 310/1/3 306/1/3 309/1/3
f 311/5/3 308/5/3 307/5/3
f 312/5/3 308/5/3 311/5/3
f 315/5/3 314/5/3 313/5/3
f 316/5/3 314/5/3 315/5/3
f 319/1/3 318/1/3 317/1/3
f 320/1/3 318/1/3 319/1/3
f 323/1/3 322/1/3 321/1/3
f 324/1/3 322/1/3 323/1/3
f 327/1/3 326/1/3 325/1/3
f 328/1/3 326/1/3 327/1/3
f 329/1/4 330/1/4 331/1/4
f 331/1/4 330/1/4 332/1/4
f 333/1/4 334/1/4 335/1/4
f 335/1/4 334/1/4 336/1/4
f 337/1/4 338/1/4 339/1/4
f 339/1/4 338/1/4 340/1/4
f 341/1/4 342/1/4 345/1/4
f 345/1/4 342/1/4 346/1/4
f 343/1/4 344/1/4 347/1/4
f 347/1/4 344/1/4 348/1/4
f 349/5/4 350/5/4 351/5/4
f 351/5/4 350/5/4 352/5/4
f 353/1/4 354/1/4 357/1/4
f 357/1/4 354/1/4 358/1/4
f 355/2/4 356/2/4 361/2/4
f 361/2/4 356/2/4 362/2/4
f 359/5/4 360/5/4 363/5/4
f 363/5/4 360/5/4 364/5/4
f 364/5/4 360/5/4 368/5/4
f 365/2/4 366/2/4 369/2/4
f 369/2/4 366/2/4 370/2/4
f 367/5/4 368/5/4 373/5/4
f 368/5/4 360/5/4 374/5/4
f 373/5/4 368/5/4 374/5/4
f 371/1/4 372/1/4 375/1/4
f 375/1/4 372/1/4 376/1/4
f 377/5/4 378/5/4 379/5/4
f 379/5/4 378/5/4 380/5/4
f 381/5/4 382/5/4 383/5/4
f 383/5/4 382/5/4 384/5/4
f 385/1/4 386/1/4 387/1/4
f 387/1/4 386/1/4 388/1/4
f 389/5/4 390/5/4 392/5/4
f 390/7/4 391/7/4 393/7/4
f 392/5/4 390/5/4 393/5/4
f 393/7/4 391/7/4 394/7/4
f 394/5/4 395/5/4 398/5/4
f 398/5/4 395/5/4 399/5/4
f 396/5/4 397/5/4 402/5/4
f 397/7/4 398/7/4 403/7/4
f 402/5/4 397/5/4 403/5/4
f 403/7/4 398/7/4 404/7/4
f 400/1/4 401/1/4 405/1/4
f 405/1/4 401/1/4 406/1/4
f 407/4/4 408/4/4 410/4/4
f 410/4/4 408/4/4 411/4/4
f 409/5/4 410/5/4 412/5/4
f 412/5/4 410/5/4 413/5/4
f 414/7/4 415/7/4 418/7/4
f 418/7/4 415/7/4 419/7/4
f 416/5/4 417/5/4 420/5/4
f 420/5/4 417/5/4 421/5/4
f 421/4/4 422/4/4 423/4/4
f 423/4/4 422/4/4 424/4/4
f 425/7/4 426/7/4 429/7/4
f 426/5/4 427/5/4 430/5/4
f 429/7/4 426/7/4 430/7/4
f 430/5/4 427/5/4 431/5/4
f 428/5/4 429/5/4 432/5/4
f 429/5/4 430/5/4 432/5/4
f 432/5/4 430/5/4 433/5/4
f 433/5/4 430/5/4 434/5/4
f 433/7/4 434/7/4 436/7/4
f 434/5/4 435/5/4 437/5/4
f 436/7/4 434/7/4 437/7/4
f 437/5/4 435/5/4 438/5/4
f 439/4/4 440/4/4 441/4/4
f 441/4/4 440/4/4 442/4/4
f 443/7/4 444/7/4 445/7/4
f 445/7/4 444/7/4 446/7/4
f 451/2/5 448/2/5 447/2/5
f 452/2/5 448/2/5 451/2/5
f 453/2/5 450/2/5 449/2/5
f 454/2/5 450/2/5 453/2/5
f 459/5/5 456/5/5 455/5/5
f 460/5/5 456/5/5 459/5/5
f 461/5/5 458/5/5 457/5/5
f 462/5/5 458/5/5 461/5/5
f 465/4/5 464/4/5 463/4/5
f 466/4/5 464/4/5 465/4/5
f 467/4/5 465/4/5 463/4/5
f 468/5/5 466/5/5 465/5/5
f 468/4/5 465/4/5 467/4/5
f 469/4/5 464/4/5 466/4/5
f 469/5/5 466/5/5 468/5/5
f 470/4/5 464/4/5 469/4/5
f 475/1/5 472/1/5 471/1/5
f 476/5/5 469/5/5 468/5/5
f 477/5/5 469/5/5 476/5/5
f 478/1/5 474/1/5 473/1/5
f 479/1/5 475/1/5 471/1/5
f 480/5/5 477/5/5 476/5/5
f 480/1/5 475/1/5 479/1/5
f 480/5/5 478/5/5 477/5/5
f 480/5/5 476/5/5 475/5/5
f 481/1/5 474/1/5 478/1/5
f 481/5/5 478/5/5 480/5/5
f 482/1/5 474/1/5 481/1/5
f 483/5/5 481/5/5 480/5/5
f 484/5/5 481/5/5 483/5/5
f 485/5/5 481/5/5 484/5/5
f 486/5/5 481/5/5 485/5/5
f 487/5/5 485/5/5 484/5/5
f 488/5/5 485/5/5 487/5/5
f 491/5/5 490/5/5 489/5/5
f 492/5/5 490/5/5 491/5/5
f 497/1/5 494/1/5 493/1/5
f 498/1/5 494/1/5 497/1/5
f 499/1/5 496/1/5 495/1/5
f 500/1/5 496/1/5 499/1/5
f 505/4/5 502/4/5 501/4/5
f 506/4/5 502/4/5 505/4/5
f 509/4/5 504/4/5 503/4/5
f 510/4/5 504/4/5 509/4/5
f 511/7/5 507/7/5 506/7/5
f 512/7/5 507/7/5 511/7/5
f 513/7/5 509/7/5 508/7/5
f 514/7/5 509/7/5 513/7/5
f 519/5/5 516/5/5 515/5/5
f 520/5/5 516/5/5 519/5/5
f 521/5/5 518/5/5 517/5/5
f 522/5/5 518/5/5 521/5/5
f 525/4/5 524/4/5 523/4/5
f 526/4/5 524/4/5 525/4/5
f 529/5/5 528/5/5 527/5/5
f 530/5/5 528/5/5 529/5/5
f 535/1/5 532/1/5 531/1/5
f 536/1/5 532/1/5 535/1/5
f 537/1/5 534/1/5 533/1/5
f 538/1/5 534/1/5 537/1/5
f 541/7/5 540/7/5 539/7/5
f 542/7/5 540/7/5 541/7/5
f 545/1/5 544/1/5 543/1/5
f 546/1/5 544/1/5 545/1/5
f 549/3/5 548/3/5 547/3/5
f 550/3/5 548/3/5 549/3/5
f 551/2/6 552/2/6 555/2/6
f 555/2/6 552/2/6 556/2/6
f 553/2/6 554/2/6 557/2/6
f 557/2/6 554/2/6 558/2/6
f 559/4/6 560/4/6 563/4/6
f 561/4/6 562/4/6 564/4/6
f 559/4/6 563/4/6 565/4/6
f 565/4/6 563/4/6 566/4/6
f 564/4/6 562/4/6 567/4/6
f 567/4/6 562/4/6 568/4/6
f 569/5/6 570/5/6 573/5/6
f 573/5/6 570/5/6 574/5/6
f 571/5/6 572/5/6 575/5/6
f 575/5/6 572/5/6 576/5/6
f 573/1/6 574/1/6 577/1/6
f 577/1/6 574/1/6 578/1/6
f 575/1/6 576/1/6 579/1/6
f 579/1/6 576/1/6 580/1/6
f 581/5/6 582/5/6 585/5/6
f 585/5/6 582/5/6 586/5/6
f 583/5/6 584/5/6 587/5/6
f 587/5/6 584/5/6 588/5/6
f 589/1/6 590/1/6 593/1/6
f 593/1/6 590/1/6 594/1/6
f 591/1/6 592/1/6 595/1/6
f 595/1/6 592/1/6 596/1/6
f 597/5/6 598/5/6 599/5/6
f 599/5/6 598/5/6 600/5/6
f 599/7/6 600/7/6 601/7/6
f 601/7/6 600/7/6 602/7/6
f 603/5/6 604/5/6 607/5/6
f 607/5/6 604/5/6 608/5/6
f 605/5/6 606/5/6 609/5/6
f 609/5/6 606/5/6 610/5/6
f 607/7/6 608/7/6 611/7/6
f 611/7/6 608/7/6 612/7/6
f 609/7/6 610/7/6 613/7/6
f 613/7/6 610/7/6 614/7/6
f 612/7/6 613/7/6 615/7/6
f 615/7/6 613/7/6 616/7/6
f 617/8/6 618/8/6 619/8/6
f 619/8/6 618/8/6 620/8/6
f 619/5/6 620/5/6 621/5/6
f 621/5/6 620/5/6 622/5/6
f 623/5/6 624/5/6 625/5/6
f 625/5/6 624/5/6 626/5/6
f 627/5/6 628/5/6 629/5/6
f 629/5/6 628/5/6 630/5/6
f 631/2/6 632/2/6 633/2/6
f 633/2/6 632/2/6 634/2/6
f 635/1/6 636/1/6 637/1/6
f 637/1/6 636/1/6 638/1/6
f 639/1/6 640/1/6 641/1/6
f 641/1/6 640/1/6 642/1/6
f 643/1/6 644/1/6 645/1/6
f 645/1/6 644/1/6 646/1/6
f 647/1/6 648/1/6 649/1/6
f 649/1/6 648/1/6 650/1/6
